<?xml version="1.0" encoding="iso-8859-1"?>
<!-- Generator: Adobe Illustrator 19.0.0, SVG Export Plug-In . SVG Version: 6.00 Build 0)  -->
<svg version="1.1" id="Layer_1" xmlns="http://www.w3.org/2000/svg" xmlns:xlink="http://www.w3.org/1999/xlink" x="0px" y="0px"
	 viewBox="0 0 460.002 460.002" style="enable-background:new 0 0 460.002 460.002;" xml:space="preserve">
<g>
	<g>
		<g>
			<path d="M427.137,0.001H32.865C14.743,0.001,0,14.743,0,32.865v394.272c0,18.122,14.743,32.864,32.865,32.864h394.272
				c18.122,0,32.865-14.743,32.865-32.864V32.865C460.002,14.743,445.259,0.001,427.137,0.001z M430.002,117.728H316.249v116.126
				c29.572,12.278,37.101,50.795,14.511,73.382l-68.939,68.939c-17.586,17.587-46.051,17.59-63.64,0.001l-68.935-68.935
				c-22.921-22.912-14.662-61.276,14.507-73.387V117.728H30V32.865c0-1.58,1.285-2.865,2.865-2.865h394.272
				c1.58,0,2.865,1.285,2.865,2.865V117.728z"/>
			<circle cx="76.849" cy="72.364" r="26.249"/>
			<path d="M298.94,260.416h-12.691v-145.74c0-8.284-6.716-15-15-15h-82.496c-8.284,0-15,6.716-15,15v145.74h-12.692
				c-13.464,0-19.967,16.25-10.606,25.606l68.939,68.939c5.858,5.858,15.355,5.858,21.213,0l68.939-68.939
				c0,0,0.001-0.001,0.002-0.002C319.051,276.52,312.147,260.416,298.94,260.416z"/>
		</g>
	</g>
</g>
<g>
</g>
<g>
</g>
<g>
</g>
<g>
</g>
<g>
</g>
<g>
</g>
<g>
</g>
<g>
</g>
<g>
</g>
<g>
</g>
<g>
</g>
<g>
</g>
<g>
</g>
<g>
</g>
<g>
</g>
</svg>
